<svg height="512pt" viewBox="0 0 512 512" width="512pt" xmlns="http://www.w3.org/2000/svg"><path d="m319.019531 512h-126.039062v-40.730469c-15.484375-4.539062-30.40625-10.742187-44.59375-18.535156l-28.847657 28.847656-89.117187-89.125 28.84375-28.84375c-7.792969-14.1875-13.996094-29.113281-18.53125-44.59375h-40.734375v-126.039062h40.730469c4.539062-15.480469 10.742187-30.40625 18.535156-44.59375l-28.84375-28.84375 89.121094-89.125 28.847656 28.847656c14.183594-7.792969 29.105469-13.996094 44.589844-18.53125v-40.734375h126.039062v40.730469c15.484375 4.539062 30.40625 10.742187 44.59375 18.535156l28.847657-28.847656 89.121093 89.121093-28.847656 28.847657c7.792969 14.183593 13.996094 29.109375 18.535156 44.59375h40.730469v126.039062h-40.730469c-4.539062 15.480469-10.742187 30.40625-18.535156 44.589844l28.847656 28.847656-89.121093 89.121094-28.847657-28.84375c-14.1875 7.789063-29.109375 13.996094-44.59375 18.53125zm-96.039062-30h66.039062v-34.15625l11.558594-2.722656c20.339844-4.792969 39.699219-12.839844 57.550781-23.917969l10.105469-6.269531 24.222656 24.222656 46.695313-46.695312-24.222656-24.222657 6.273437-10.105469c11.078125-17.851562 19.125-37.214843 23.914063-57.550781l2.726562-11.5625h34.15625v-66.035156h-34.15625l-2.722656-11.5625c-4.792969-20.335937-12.839844-39.699219-23.917969-57.550781l-6.269531-10.105469 24.222656-24.222656-46.695312-46.695313-24.226563 24.222656-10.105469-6.269531c-17.847656-11.078125-37.210937-19.125-57.550781-23.917969l-11.558594-2.722656v-34.160156h-66.039062v34.15625l-11.558594 2.722656c-20.339844 4.792969-39.703125 12.839844-57.550781 23.917969l-10.105469 6.269531-24.226563-24.222656-46.695312 46.695312 24.222656 24.222657-6.269531 10.105469c-11.078125 17.851562-19.125 37.214843-23.917969 57.550781l-2.722656 11.5625h-34.15625v66.035156h34.15625l2.722656 11.5625c4.792969 20.335937 12.839844 39.699219 23.917969 57.550781l6.269531 10.105469-24.222656 24.222656 46.695312 46.695313 24.226563-24.222656 10.105469 6.269531c17.847656 11.078125 37.210937 19.125 57.550781 23.917969l11.558594 2.722656zm0 0"/><path d="m187.644531 345.65625-70.550781-89.65625 70.550781-89.65625 23.574219 18.550781-55.949219 71.105469 55.949219 71.105469zm0 0"/><path d="m324.355469 345.65625-23.574219-18.550781 55.949219-71.105469-55.949219-71.105469 23.574219-18.550781 70.550781 89.65625zm0 0"/><path d="m241 165.945312h30v180.109376h-30zm0 0"/></svg>